<svg width="32" height="32" viewBox="0 0 32 32" fill="none" xmlns="http://www.w3.org/2000/svg">
<path d="M25 10.5182C25 10.7621 24.9064 10.9961 24.7397 11.1685C24.573 11.341 24.3469 11.4379 24.1111 11.4379H20.5389C20.5489 11.5897 20.5556 11.7426 20.5556 11.8978C20.5535 13.7265 19.8505 15.4798 18.6007 16.7729C17.3509 18.066 15.6564 18.7934 13.8889 18.7955H12.1878L20.2644 26.3923C20.3524 26.4731 20.4241 26.5711 20.4752 26.6807C20.5263 26.7903 20.5558 26.9094 20.5622 27.0309C20.5685 27.1524 20.5514 27.274 20.512 27.3887C20.4725 27.5034 20.4115 27.6088 20.3324 27.6988C20.2533 27.7889 20.1577 27.8618 20.0511 27.9134C19.9446 27.965 19.8292 27.9941 19.7117 27.9992C19.5941 28.0043 19.4768 27.9852 19.3665 27.943C19.2561 27.9008 19.155 27.8364 19.0689 27.7535L9.29111 18.5564C9.15835 18.4316 9.06521 18.2681 9.02394 18.0874C8.98266 17.9068 8.99519 17.7174 9.05987 17.5443C9.12454 17.3711 9.23835 17.2223 9.38631 17.1173C9.53428 17.0124 9.70948 16.9562 9.88889 16.9561H13.8889C15.1851 16.9546 16.4277 16.4212 17.3442 15.4729C18.2608 14.5246 18.7763 13.2389 18.7778 11.8978C18.7778 11.7426 18.77 11.5897 18.7567 11.4379H9.88889C9.65314 11.4379 9.42705 11.341 9.26035 11.1685C9.09365 10.9961 9 10.7621 9 10.5182C9 10.2743 9.09365 10.0404 9.26035 9.86789C9.42705 9.69541 9.65314 9.59852 9.88889 9.59852H18.2411C17.8317 8.76844 17.2086 8.07151 16.4406 7.58464C15.6726 7.09777 14.7896 6.83987 13.8889 6.83941H9.88889C9.65314 6.83941 9.42705 6.74251 9.26035 6.57003C9.09365 6.39755 9 6.16362 9 5.9197C9 5.67578 9.09365 5.44185 9.26035 5.26938C9.42705 5.0969 9.65314 5 9.88889 5H24.1111C24.3469 5 24.573 5.0969 24.7397 5.26938C24.9064 5.44185 25 5.67578 25 5.9197C25 6.16362 24.9064 6.39755 24.7397 6.57003C24.573 6.74251 24.3469 6.83941 24.1111 6.83941H18.4156C19.2085 7.59855 19.8116 8.5453 20.1733 9.59852H24.1111C24.3469 9.59852 24.573 9.69541 24.7397 9.86789C24.9064 10.0404 25 10.2743 25 10.5182Z" fill="#1674AE"/>
</svg>
