<svg width="43" height="16" viewBox="0 0 43 16" fill="none" xmlns="http://www.w3.org/2000/svg">
<g clip-path="url(#clip0_1_1952)">
<path d="M20.3377 7.81651V12.5066H18.7498V0.924118H22.9613C23.464 0.914279 23.9638 0.99782 24.4319 1.16992C24.8999 1.34202 25.327 1.59927 25.6884 1.92683C26.0535 2.2345 26.344 2.61183 26.5405 3.03345C26.737 3.45507 26.8349 3.91122 26.8276 4.37124C26.8381 4.83372 26.7417 5.29284 26.545 5.71715C26.3484 6.14146 26.0562 6.52091 25.6884 6.82951C24.952 7.48751 24.0429 7.8162 22.9613 7.81559H20.3377V7.81651ZM20.3377 2.3501V6.3933H23.0007C23.2927 6.40141 23.5832 6.35234 23.8538 6.24922C24.1243 6.1461 24.3689 5.99121 24.5719 5.79445C24.7739 5.61048 24.9344 5.39044 25.044 5.14734C25.1536 4.90423 25.2101 4.643 25.2101 4.37909C25.2101 4.11518 25.1536 3.85395 25.044 3.61085C24.9344 3.36775 24.7739 3.14771 24.5719 2.96374C24.3715 2.76284 24.1277 2.60415 23.8568 2.4982C23.586 2.39224 23.2941 2.34145 23.0007 2.34917H20.3377V2.3501Z" fill="#5F6368"/>
<path d="M30.4866 4.32324C31.6603 4.32324 32.5868 4.61713 33.266 5.20489C33.9453 5.79266 34.2846 6.59853 34.2839 7.6225V12.5067H32.765V11.4069H32.696C32.0384 12.3126 31.1639 12.7655 30.0724 12.7655C29.1407 12.7655 28.3611 12.5067 27.7339 11.9892C27.4328 11.7516 27.1921 11.4541 27.0294 11.1184C26.8666 10.7827 26.7858 10.4171 26.7929 10.0484C26.7929 9.22838 27.1237 8.57623 27.7851 8.09197C28.4466 7.60771 29.3297 7.36496 30.4344 7.36373C31.3773 7.36373 32.1538 7.52546 32.764 7.84892V7.50883C32.7658 7.25747 32.7079 7.00889 32.5944 6.78111C32.481 6.55333 32.3149 6.35206 32.1081 6.1919C31.6882 5.83691 31.1409 5.64321 30.5754 5.64941C29.6884 5.64941 28.9865 5.99998 28.4696 6.70111L27.0711 5.87583C27.8404 4.84077 28.9789 4.32324 30.4866 4.32324ZM28.4322 10.0808C28.4311 10.2701 28.4783 10.457 28.5699 10.6258C28.6616 10.7946 28.7949 10.9404 28.9588 11.0511C29.31 11.31 29.746 11.4471 30.1927 11.4393C30.8628 11.4382 31.5051 11.1883 31.9789 10.7443C32.5049 10.2804 32.768 9.73605 32.768 9.11132C32.2728 8.74166 31.5824 8.55682 30.6967 8.55682C30.0517 8.55682 29.5138 8.70253 29.0831 8.99395C28.6482 9.28968 28.4322 9.64918 28.4322 10.0808Z" fill="#5F6368"/>
<path d="M43.003 4.58203L37.7006 16H36.0614L38.0291 12.0049L34.5425 4.58203H36.2685L38.7885 10.2749H38.823L41.274 4.58203H43.003Z" fill="#5F6368"/>
<path d="M13.9206 6.80549C13.9212 6.35205 13.8803 5.8994 13.7983 5.45251H7.10132V8.01521H10.9371C10.8586 8.42451 10.6924 8.81468 10.4487 9.1622C10.2049 9.50972 9.8886 9.8074 9.51876 10.0373V11.7008H11.808C13.1484 10.5428 13.9206 8.83032 13.9206 6.80549Z" fill="#4285F4"/>
<path d="M7.1015 13.308C9.01789 13.308 10.6315 12.7183 11.8082 11.7018L9.51894 10.0383C8.88178 10.4431 8.06118 10.6741 7.1015 10.6741C5.24922 10.6741 3.67704 9.50411 3.11485 7.92749H0.756592V9.64181C1.34765 10.7439 2.25398 11.6703 3.37439 12.3177C4.4948 12.965 5.78519 13.3079 7.1015 13.308Z" fill="#34A853"/>
<path d="M3.11468 7.92744C2.81746 7.10129 2.81746 6.20662 3.11468 5.38046V3.66614H0.756418C0.259197 4.59321 0.000244141 5.61639 0.000244141 6.65395C0.000244141 7.69151 0.259197 8.71469 0.756418 9.64176L3.11468 7.92744Z" fill="#FBBC04"/>
<path d="M7.1015 2.63381C8.11423 2.6183 9.09279 2.97683 9.82568 3.6319L11.8525 1.73275C10.5673 0.601647 8.86464 -0.0193473 7.1015 -5.17193e-05C5.78519 4.49293e-06 4.4948 0.342863 3.37439 0.990245C2.25398 1.63763 1.34765 2.56405 0.756592 3.66609L3.11485 5.38041C3.67704 3.8038 5.24922 2.63381 7.1015 2.63381Z" fill="#EA4335"/>
</g>
<defs>
<clipPath id="clip0_1_1952">
<rect width="43" height="16" fill="white"/>
</clipPath>
</defs>
</svg>
