<svg width="40" height="14" viewBox="0 0 40 14" fill="none" xmlns="http://www.w3.org/2000/svg">
<path d="M31.3528 3.38815C31.5175 3.25642 31.5998 3.19056 31.6821 3.12469C32.8265 2.15319 34.292 2.26022 35.2717 3.41285C35.3705 3.52811 35.4199 3.53635 35.5187 3.43755C35.5846 3.36345 35.6587 3.30582 35.7246 3.23172C36.4902 2.48251 37.5029 2.26022 38.4497 2.68011C39.4459 3.12469 39.9811 3.90684 39.9893 5.00184C40.0058 7.36473 39.9975 9.71939 39.9975 12.0823C39.9975 12.9221 39.4788 13.449 38.6473 13.449C38.318 13.449 37.9887 13.4243 37.6593 13.4572C37.3218 13.4901 37.223 13.3831 37.223 13.0291C37.2395 10.7238 37.2312 8.41856 37.2312 6.1133C37.2312 6.0145 37.2312 5.92394 37.2312 5.82514C37.223 5.28999 37.0089 5.0677 36.4985 5.043C36.0374 5.0183 35.7163 5.29823 35.6669 5.76751C35.6587 5.87454 35.6669 5.98981 35.6669 6.09684C35.6669 8.08924 35.6669 10.0734 35.6669 12.0658C35.6669 12.9385 35.1647 13.449 34.292 13.4407C33.8474 13.4325 33.2464 13.6383 32.9912 13.3502C32.7689 13.1032 32.9171 12.5186 32.9171 12.0823C32.9171 10.0405 32.9171 7.99044 32.9171 5.94864C32.9171 5.22413 32.4478 4.85364 31.8385 5.10063C31.4598 5.25706 31.3363 5.56169 31.3363 5.95687C31.3446 7.86695 31.3363 9.76879 31.3363 11.6789C31.3363 11.8271 31.3363 11.9835 31.3363 12.1317C31.3116 12.9303 30.8012 13.4325 30.0108 13.4407C29.6815 13.449 29.3522 13.416 29.0228 13.449C28.6688 13.4819 28.5618 13.3831 28.57 13.0044C28.5865 9.76879 28.5782 6.53319 28.5782 3.28935C28.5782 3.14939 28.5865 3.01766 28.5782 2.8777C28.5618 2.69657 28.6359 2.63894 28.817 2.63894C29.5745 2.64718 30.3237 2.64718 31.0811 2.63894C31.2705 2.63894 31.361 2.68834 31.3446 2.89417C31.3281 3.04236 31.3446 3.17409 31.3528 3.38815Z" fill="#02B9EF"/>
<path d="M13.8987 7.84945C13.8987 8.97739 13.8987 10.0971 13.8987 11.225C13.8904 12.6905 13.1247 13.4479 11.6593 13.4562C11.0171 13.4562 10.3667 13.4644 9.72448 13.4562C8.42365 13.4397 7.46861 12.5752 7.40275 11.2744C7.35335 10.3441 7.34512 9.40551 7.39452 8.47517C7.46038 7.14141 8.48128 6.20284 9.83151 6.18637C10.1855 6.17814 10.5478 6.18637 10.9018 6.18637C11.2476 6.17814 11.3793 5.98054 11.3711 5.65122C11.3711 5.3219 11.2229 5.1737 10.8936 5.19017C10.5231 5.1984 10.1526 5.1984 9.78211 5.19017C8.87647 5.1737 8.37425 4.67972 8.38249 3.79054C8.38249 3.42829 8.21782 2.94254 8.45658 2.72848C8.66241 2.54735 9.1317 2.66261 9.48572 2.66261C10.4078 2.65438 11.3217 2.66261 12.2438 2.66261C13.2235 2.66261 13.8904 3.32949 13.8987 4.31746C13.9069 5.48656 13.8987 6.67212 13.8987 7.84945ZM11.3793 9.71836C11.3793 9.5784 11.3793 9.44667 11.3793 9.30671C11.3793 8.46693 11.3793 8.46693 10.5396 8.49987C10.1197 8.51633 9.88914 8.73039 9.88091 9.16675C9.87267 9.51254 9.87267 9.85009 9.88091 10.1959C9.88914 10.7887 10.1526 10.9451 11.0088 10.9698C11.6428 10.9863 11.3217 10.5417 11.3793 10.2947C11.4123 10.1135 11.3711 9.90772 11.3793 9.71836Z" fill="#06306F"/>
<path d="M21.227 6.95311C21.227 8.21278 21.2434 9.48067 21.2187 10.7403C21.2023 11.7118 20.9717 12.5928 20.0332 13.1115C19.6544 13.3173 19.2428 13.4325 18.8147 13.4408C17.8679 13.4572 16.9211 13.4408 15.9742 13.4572C15.7437 13.4572 15.6943 13.3749 15.7026 13.1691C15.719 12.8233 15.6943 12.4857 15.7108 12.14C15.7273 11.4813 16.2295 10.9791 16.8881 10.9544C17.3162 10.9379 17.7361 10.9462 18.1642 10.9544C18.51 10.9544 18.6994 10.8144 18.6994 10.4439C18.6994 10.0652 18.5183 9.93349 18.1725 9.92525C17.5962 9.90879 17.0199 9.99112 16.4518 9.82646C15.472 9.5383 14.7558 8.72323 14.7311 7.71056C14.6817 6.10511 14.7146 4.49966 14.7064 2.8942C14.7064 2.71308 14.764 2.65545 14.9451 2.66368C15.6202 2.67191 16.2871 2.68015 16.9622 2.66368C17.2586 2.65545 17.2174 2.82011 17.2174 3.00123C17.2174 4.2115 17.2174 5.41353 17.2174 6.62379C17.2174 7.15071 17.4644 7.43063 17.9255 7.4471C18.4689 7.46356 18.7076 7.24127 18.7076 6.68966C18.7076 5.47116 18.7159 4.24443 18.6994 3.02593C18.6994 2.73778 18.7735 2.65545 19.0617 2.66368C19.6627 2.68838 20.2719 2.69661 20.8729 2.66368C21.2023 2.64721 21.2517 2.77071 21.2434 3.05887C21.2187 4.35146 21.227 5.65229 21.227 6.95311Z" fill="#06306F"/>
<path d="M0.248742 8.82221C0.248742 7.48021 0.248742 6.12999 0.248742 4.788C0.248742 3.4707 1.05558 2.6474 2.38111 2.66386C3.24558 2.67209 4.11006 2.56506 4.9663 2.72973C6.0613 2.94379 6.75288 3.79179 6.76111 4.91973C6.76934 6.11352 6.76111 7.30732 6.76111 8.50112C6.76111 9.99954 5.88017 10.9134 4.38175 10.9546C3.92893 10.971 3.47611 10.9628 3.02329 10.9546C2.81746 10.9463 2.7269 11.0122 2.73513 11.2345C2.7516 11.5638 2.74337 11.8931 2.73513 12.2225C2.71867 12.9305 2.21645 13.441 1.51664 13.4492C1.10498 13.4574 0.586299 13.6221 0.32284 13.3833C0.0758478 13.161 0.256976 12.6341 0.248742 12.2389C0.240509 11.1028 0.248742 9.95837 0.248742 8.82221ZM2.73513 6.8051C2.73513 7.06856 2.73513 7.32378 2.73513 7.58724C2.73513 8.51758 2.73513 8.51758 3.66547 8.43525C4.06889 8.40232 4.25825 8.20473 4.26649 7.8013C4.27472 7.34025 4.25002 6.87097 4.27472 6.40991C4.32412 5.07615 4.07713 5.20788 2.99036 5.19965C2.79276 5.19965 2.7269 5.25728 2.7269 5.45488C2.74337 5.89946 2.73513 6.35228 2.73513 6.8051Z" fill="#06306F"/>
<path d="M23.5564 8.8383C23.5564 7.7433 23.5481 6.64007 23.5646 5.54507C23.5646 5.28984 23.507 5.18281 23.2271 5.19105C22.8566 5.20751 22.3626 5.31454 22.1568 5.13341C21.9015 4.89466 22.0991 4.3842 22.0662 3.98902C22.0662 3.96432 22.0662 3.93138 22.0662 3.90668C22.0662 3.51973 21.9427 3.06691 22.1074 2.77875C22.272 2.4906 22.7742 2.67172 23.1283 2.58116C23.8281 2.40003 24.355 1.99661 24.7831 1.43676C25.0795 1.05804 25.45 0.786347 25.9275 0.695783C26.1827 0.646384 26.3392 0.679317 26.3227 1.00864C26.298 1.46969 26.3227 1.93898 26.3145 2.40826C26.3062 2.60586 26.3803 2.67172 26.5779 2.66349C26.9072 2.65526 27.2366 2.67172 27.5659 2.65526C27.7635 2.64702 27.8293 2.72112 27.8211 2.91872C27.8129 3.59383 27.8129 4.26071 27.8211 4.93582C27.8211 5.12518 27.7717 5.22398 27.5659 5.19928C27.5247 5.19105 27.4836 5.19928 27.4424 5.19928C27.0801 5.23221 26.5779 5.03462 26.3886 5.28161C26.2074 5.51214 26.3227 5.98966 26.3227 6.36014C26.3227 8.59954 26.3145 10.8307 26.3309 13.0701C26.3309 13.383 26.2486 13.4818 25.9357 13.4571C25.6393 13.4324 25.3347 13.4571 25.0301 13.4488C24.1409 13.4159 23.5564 12.8149 23.5564 11.9257C23.5564 10.8966 23.5564 9.86744 23.5564 8.8383Z" fill="#02B9EF"/>
</svg>
