<svg width="51" height="51" viewBox="0 0 51 51" fill="none" xmlns="http://www.w3.org/2000/svg">
<path d="M25.1428 4.30945C13.6636 4.30945 4.30945 13.6636 4.30945 25.1428C4.30945 36.6219 13.6636 45.9761 25.1428 45.9761C36.6219 45.9761 45.9761 36.6219 45.9761 25.1428C45.9761 13.6636 36.6219 4.30945 25.1428 4.30945ZM35.1011 20.3511L23.2886 32.1636C22.9969 32.4553 22.6011 32.6219 22.1844 32.6219C21.7678 32.6219 21.3719 32.4553 21.0803 32.1636L15.1844 26.2678C14.5803 25.6636 14.5803 24.6636 15.1844 24.0594C15.7886 23.4553 16.7886 23.4553 17.3928 24.0594L22.1844 28.8511L32.8928 18.1428C33.4969 17.5386 34.4969 17.5386 35.1011 18.1428C35.7053 18.7469 35.7053 19.7261 35.1011 20.3511Z" fill="#41D195"/>
</svg>
